<svg width="275" height="45" viewBox="0 0 275 45" fill="none" xmlns="http://www.w3.org/2000/svg">
<rect width="275" height="45" rx="22.5" fill="white"/>
<path fill-rule="evenodd" clip-rule="evenodd" d="M19.1667 22.1667C19.1667 19.4092 21.4092 17.1667 24.1667 17.1667C26.9242 17.1667 29.1667 19.4092 29.1667 22.1667C29.1667 24.9242 26.9242 27.1667 24.1667 27.1667C21.4092 27.1667 19.1667 24.9242 19.1667 22.1667ZM32.2558 29.0775L29.4267 26.2475C30.3042 25.1192 30.8333 23.705 30.8333 22.1667C30.8333 18.4908 27.8425 15.5 24.1667 15.5C20.4908 15.5 17.5 18.4908 17.5 22.1667C17.5 25.8425 20.4908 28.8333 24.1667 28.8333C25.705 28.8333 27.1192 28.3042 28.2475 27.4267L31.0775 30.2558C31.24 30.4183 31.4533 30.5 31.6667 30.5C31.88 30.5 32.0933 30.4183 32.2558 30.2558C32.5817 29.93 32.5817 29.4033 32.2558 29.0775Z" fill="#8D8D8D"/>
<mask id="mask0_1_170" style="mask-type:alpha" maskUnits="userSpaceOnUse" x="17" y="15" width="16" height="16">
<path fill-rule="evenodd" clip-rule="evenodd" d="M19.1667 22.1667C19.1667 19.4092 21.4092 17.1667 24.1667 17.1667C26.9242 17.1667 29.1667 19.4092 29.1667 22.1667C29.1667 24.9242 26.9242 27.1667 24.1667 27.1667C21.4092 27.1667 19.1667 24.9242 19.1667 22.1667ZM32.2558 29.0775L29.4267 26.2475C30.3042 25.1192 30.8333 23.705 30.8333 22.1667C30.8333 18.4908 27.8425 15.5 24.1667 15.5C20.4908 15.5 17.5 18.4908 17.5 22.1667C17.5 25.8425 20.4908 28.8333 24.1667 28.8333C25.705 28.8333 27.1192 28.3042 28.2475 27.4267L31.0775 30.2558C31.24 30.4183 31.4533 30.5 31.6667 30.5C31.88 30.5 32.0933 30.4183 32.2558 30.2558C32.5817 29.93 32.5817 29.4033 32.2558 29.0775Z" fill="white"/>
</mask>
<g mask="url(#mask0_1_170)">
<rect x="15" y="13" width="20" height="20" fill="#8D8D8D"/>
</g>
<path d="M42.54 28C42.4467 28 42.3673 27.972 42.302 27.916C42.246 27.8507 42.218 27.7713 42.218 27.678V18.536C42.218 18.4333 42.246 18.354 42.302 18.298C42.3673 18.2327 42.4467 18.2 42.54 18.2H49.442C49.5447 18.2 49.624 18.2327 49.68 18.298C49.7453 18.354 49.778 18.4333 49.778 18.536V27.678C49.778 27.7713 49.7453 27.8507 49.68 27.916C49.6147 27.972 49.5353 28 49.442 28H48.728C48.6347 28 48.5553 27.972 48.49 27.916C48.434 27.8507 48.406 27.7713 48.406 27.678V19.46H43.59V27.678C43.59 27.7713 43.5573 27.8507 43.492 27.916C43.4267 27.972 43.3473 28 43.254 28H42.54ZM55.0121 28.14C53.9855 28.14 53.1875 27.8507 52.6181 27.272C52.0581 26.6933 51.7595 25.9233 51.7221 24.962L51.7081 24.36L51.7221 23.758C51.7595 22.806 52.0628 22.0407 52.6321 21.462C53.2015 20.874 53.9948 20.58 55.0121 20.58C56.0295 20.58 56.8228 20.874 57.3921 21.462C57.9615 22.0407 58.2648 22.806 58.3021 23.758C58.3115 23.8607 58.3161 24.0613 58.3161 24.36C58.3161 24.6587 58.3115 24.8593 58.3021 24.962C58.2648 25.9233 57.9615 26.6933 57.3921 27.272C56.8321 27.8507 56.0388 28.14 55.0121 28.14ZM55.0121 27.062C55.6001 27.062 56.0621 26.8753 56.3981 26.502C56.7435 26.1287 56.9301 25.592 56.9581 24.892C56.9675 24.7987 56.9721 24.6213 56.9721 24.36C56.9721 24.0987 56.9675 23.9213 56.9581 23.828C56.9301 23.128 56.7435 22.5913 56.3981 22.218C56.0621 21.8447 55.6001 21.658 55.0121 21.658C54.4241 21.658 53.9575 21.8447 53.6121 22.218C53.2668 22.5913 53.0848 23.128 53.0661 23.828L53.0521 24.36L53.0661 24.892C53.0848 25.592 53.2668 26.1287 53.6121 26.502C53.9575 26.8753 54.4241 27.062 55.0121 27.062ZM66.2572 20.72C66.3319 20.72 66.3972 20.748 66.4532 20.804C66.5185 20.86 66.5512 20.9253 66.5512 21V27.678C66.5512 27.7713 66.5185 27.8507 66.4532 27.916C66.3972 27.972 66.3225 28 66.2292 28H65.5712C65.4779 28 65.3985 27.972 65.3332 27.916C65.2772 27.8507 65.2492 27.7713 65.2492 27.678V22.596L61.3712 27.79C61.2685 27.93 61.1472 28 61.0072 28H60.3772C60.2932 28 60.2185 27.972 60.1532 27.916C60.0972 27.8507 60.0692 27.7807 60.0692 27.706V21.042C60.0692 20.9487 60.0972 20.874 60.1532 20.818C60.2185 20.7527 60.2979 20.72 60.3912 20.72H61.0632C61.1565 20.72 61.2312 20.7527 61.2872 20.818C61.3525 20.874 61.3852 20.9487 61.3852 21.042V26.096L65.2492 20.93C65.3519 20.79 65.4732 20.72 65.6132 20.72H66.2572ZM71.5405 28.14C70.5418 28.14 69.7578 27.86 69.1885 27.3C68.6285 26.7307 68.3298 25.9373 68.2925 24.92L68.2785 24.36L68.2925 23.8C68.3298 22.7827 68.6285 21.994 69.1885 21.434C69.7578 20.8647 70.5418 20.58 71.5405 20.58C72.2125 20.58 72.7818 20.7013 73.2485 20.944C73.7151 21.1867 74.0605 21.4853 74.2845 21.84C74.5178 22.1947 74.6438 22.5493 74.6625 22.904C74.6718 22.9973 74.6438 23.072 74.5785 23.128C74.5131 23.184 74.4338 23.212 74.3405 23.212H73.6685C73.5751 23.212 73.5051 23.1933 73.4585 23.156C73.4118 23.1187 73.3651 23.044 73.3185 22.932C73.1598 22.484 72.9358 22.1667 72.6465 21.98C72.3571 21.784 71.9931 21.686 71.5545 21.686C70.9758 21.686 70.5138 21.868 70.1685 22.232C69.8325 22.5867 69.6505 23.1327 69.6225 23.87L69.6085 24.374L69.6225 24.85C69.6505 25.5967 69.8325 26.1473 70.1685 26.502C70.5045 26.8567 70.9665 27.034 71.5545 27.034C71.9931 27.034 72.3571 26.9407 72.6465 26.754C72.9358 26.558 73.1598 26.236 73.3185 25.788C73.3651 25.676 73.4118 25.6013 73.4585 25.564C73.5051 25.5173 73.5751 25.494 73.6685 25.494H74.3405C74.4338 25.494 74.5131 25.5267 74.5785 25.592C74.6438 25.648 74.6718 25.7227 74.6625 25.816C74.6438 26.1613 74.5178 26.516 74.2845 26.88C74.0605 27.2347 73.7151 27.5333 73.2485 27.776C72.7911 28.0187 72.2218 28.14 71.5405 28.14ZM82.4011 27.594C82.4477 27.65 82.4711 27.7107 82.4711 27.776C82.4711 27.8413 82.4431 27.8973 82.3871 27.944C82.3404 27.9813 82.2751 28 82.1911 28H81.3371C81.1877 28 81.0664 27.93 80.9731 27.79L78.9431 24.864H77.6271V27.678C77.6271 27.7713 77.5944 27.8507 77.5291 27.916C77.4731 27.972 77.3984 28 77.3051 28H76.6471C76.5537 28 76.4744 27.972 76.4091 27.916C76.3531 27.8507 76.3251 27.7713 76.3251 27.678V21.042C76.3251 20.9487 76.3531 20.874 76.4091 20.818C76.4744 20.7527 76.5537 20.72 76.6471 20.72H77.3051C77.3984 20.72 77.4731 20.7527 77.5291 20.818C77.5944 20.874 77.6271 20.9487 77.6271 21.042V23.73H78.9151L80.7911 20.93C80.9031 20.79 81.0291 20.72 81.1691 20.72H81.8971C81.9811 20.72 82.0511 20.7433 82.1071 20.79C82.1631 20.8273 82.1911 20.8787 82.1911 20.944C82.1911 20.9907 82.1677 21.0467 82.1211 21.112L80.0351 24.206L82.4011 27.594Z" fill="#8D8D8D"/>
</svg>
