<svg width="70" height="36" viewBox="0 0 70 36" fill="none" xmlns="http://www.w3.org/2000/svg">
<rect width="70" height="36" rx="18" fill="#DCE6FF"/>
<circle cx="18" cy="18" r="15" fill="white"/>
<path d="M11.6823 22C11.5956 22 11.5219 21.974 11.4613 21.922C11.4093 21.8613 11.3833 21.7877 11.3833 21.701V21.155C11.3833 21.0597 11.4093 20.986 11.4613 20.934C11.5219 20.8733 11.5956 20.843 11.6823 20.843H12.1373C12.4146 20.843 12.6529 20.778 12.8523 20.648C13.0516 20.5093 13.2379 20.297 13.4113 20.011C13.5933 19.725 13.7796 19.3523 13.9703 18.893L16.5053 13.121C16.5313 13.043 16.5746 12.9867 16.6353 12.952C16.6959 12.9173 16.7609 12.9 16.8303 12.9H17.5323C17.6016 12.9 17.6623 12.926 17.7143 12.978C17.7663 13.03 17.7923 13.0907 17.7923 13.16C17.7923 13.1947 17.7879 13.2293 17.7793 13.264C17.7793 13.29 17.7706 13.316 17.7533 13.342L15.1013 19.348C14.8933 19.8073 14.6983 20.206 14.5163 20.544C14.3343 20.8733 14.1393 21.1463 13.9313 21.363C13.7233 21.5797 13.4806 21.74 13.2033 21.844C12.9259 21.948 12.5923 22 12.2023 22H11.6823ZM13.8923 19.79L10.3433 13.316C10.3173 13.264 10.3043 13.2163 10.3043 13.173C10.3043 13.1037 10.3303 13.043 10.3823 12.991C10.4429 12.9303 10.5079 12.9 10.5773 12.9H11.3053C11.3833 12.9 11.4483 12.9173 11.5003 12.952C11.5523 12.9867 11.5956 13.043 11.6303 13.121L14.5813 18.49L13.8923 19.79ZM21.6645 22.13C21.1359 22.13 20.6679 22.0693 20.2605 21.948C19.8532 21.8267 19.5109 21.662 19.2335 21.454C18.9562 21.2373 18.7352 20.9903 18.5705 20.713C18.4145 20.4357 18.3235 20.1367 18.2975 19.816C18.2889 19.738 18.3105 19.6773 18.3625 19.634C18.4232 19.5907 18.4925 19.569 18.5705 19.569H19.2205C19.2985 19.569 19.3679 19.5863 19.4285 19.621C19.4979 19.6557 19.5499 19.7293 19.5845 19.842C19.6885 20.1887 19.9139 20.4747 20.2605 20.7C20.6072 20.9167 21.0709 21.025 21.6515 21.025C22.0589 21.025 22.4272 20.9643 22.7565 20.843C23.0859 20.713 23.3502 20.531 23.5495 20.297C23.7489 20.0543 23.8485 19.764 23.8485 19.426C23.8485 18.9147 23.6622 18.5203 23.2895 18.243C22.9255 17.957 22.4272 17.814 21.7945 17.814H20.8585C20.7719 17.814 20.7025 17.788 20.6505 17.736C20.5985 17.6753 20.5725 17.6017 20.5725 17.515V17.06C20.5725 16.9647 20.5985 16.891 20.6505 16.839C20.7025 16.7783 20.7719 16.748 20.8585 16.748H21.7425C22.2799 16.748 22.7132 16.631 23.0425 16.397C23.3805 16.163 23.5495 15.7903 23.5495 15.279C23.5495 14.993 23.4629 14.746 23.2895 14.538C23.1249 14.33 22.9039 14.1697 22.6265 14.057C22.3492 13.9357 22.0372 13.875 21.6905 13.875C21.1619 13.875 20.7199 13.9703 20.3645 14.161C20.0092 14.3517 19.7882 14.6593 19.7015 15.084C19.6755 15.1793 19.6365 15.2487 19.5845 15.292C19.5325 15.3267 19.4675 15.344 19.3895 15.344H18.6875C18.6095 15.344 18.5402 15.318 18.4795 15.266C18.4275 15.214 18.4059 15.149 18.4145 15.071C18.4405 14.7417 18.5315 14.4383 18.6875 14.161C18.8435 13.875 19.0559 13.628 19.3245 13.42C19.6019 13.212 19.9399 13.0517 20.3385 12.939C20.7372 12.8263 21.1922 12.77 21.7035 12.77C22.4055 12.77 22.9862 12.887 23.4455 13.121C23.9049 13.355 24.2515 13.6583 24.4855 14.031C24.7195 14.395 24.8365 14.7893 24.8365 15.214C24.8365 15.474 24.8019 15.7297 24.7325 15.981C24.6719 16.2323 24.5635 16.462 24.4075 16.67C24.2602 16.878 24.0565 17.06 23.7965 17.216C24.1085 17.3633 24.3599 17.554 24.5505 17.788C24.7499 18.0133 24.8972 18.269 24.9925 18.555C25.0965 18.8323 25.1485 19.1313 25.1485 19.452C25.1485 19.9807 25.0055 20.4443 24.7195 20.843C24.4422 21.2417 24.0435 21.558 23.5235 21.792C23.0035 22.0173 22.3839 22.13 21.6645 22.13Z" fill="black"/>
<path d="M42.43 23C42.3433 23 42.2697 22.974 42.209 22.922C42.157 22.8613 42.131 22.7877 42.131 22.701V14.212C42.131 14.1167 42.157 14.043 42.209 13.991C42.2697 13.9303 42.3433 13.9 42.43 13.9H45.732C46.7113 13.9 47.4827 14.1383 48.046 14.615C48.6093 15.0917 48.891 15.7807 48.891 16.682C48.891 17.5833 48.6093 18.2723 48.046 18.749C47.4913 19.217 46.72 19.451 45.732 19.451H43.431V22.701C43.431 22.7877 43.4007 22.8613 43.34 22.922C43.2793 22.974 43.2057 23 43.119 23H42.43ZM45.667 18.359C46.2997 18.359 46.7763 18.216 47.097 17.93C47.4263 17.644 47.591 17.228 47.591 16.682C47.591 16.136 47.4307 15.72 47.11 15.434C46.7893 15.1393 46.3083 14.992 45.667 14.992H43.418V18.359H45.667ZM56.7378 13.9C56.8072 13.9 56.8678 13.926 56.9198 13.978C56.9718 14.03 56.9978 14.0907 56.9978 14.16C56.9978 14.2293 56.9848 14.29 56.9588 14.342L54.3068 20.348C54.0035 21.0327 53.7305 21.557 53.4878 21.921C53.2538 22.2763 52.9765 22.545 52.6558 22.727C52.3352 22.909 51.9192 23 51.4078 23H50.8878C50.8012 23 50.7275 22.974 50.6668 22.922C50.6148 22.8613 50.5888 22.7877 50.5888 22.701V22.155C50.5888 22.0683 50.6148 21.9947 50.6668 21.934C50.7275 21.8733 50.8012 21.843 50.8878 21.843H51.3428C51.6895 21.843 51.9755 21.739 52.2008 21.531C52.4348 21.3143 52.6732 20.9547 52.9158 20.452L49.5488 14.316C49.5228 14.264 49.5098 14.2163 49.5098 14.173C49.5098 14.1037 49.5358 14.043 49.5878 13.991C49.6485 13.9303 49.7135 13.9 49.7828 13.9H50.5238C50.6538 13.9 50.7578 13.9737 50.8358 14.121L53.5398 19.048L55.7108 14.121C55.7368 14.0517 55.7802 13.9997 55.8408 13.965C55.9015 13.9217 55.9665 13.9 56.0358 13.9H56.7378Z" fill="#A6A6A6"/>
</svg>
